<svg xmlns="http://www.w3.org/2000/svg" xmlns:xlink="http://www.w3.org/1999/xlink" width="193" height="66" viewBox="0 0 193 66">
  <defs>
    <clipPath id="clip-path">
      <rect id="Rectangle_14" data-name="Rectangle 14" width="193" height="66" transform="translate(-873 1590)" fill="#fff" stroke="#707070" stroke-width="1"/>
    </clipPath>
  </defs>
  <g id="Mask_Group_2" data-name="Mask Group 2" transform="translate(873 -1590)" clip-path="url(#clip-path)">
    <g id="bijenkorf" transform="translate(-873 1527)">
      <path id="Path_5" data-name="Path 5" d="M0,0H192.756V192.756H0Z" fill="none" fill-rule="evenodd"/>
      <path id="Path_6" data-name="Path 6" d="M98.658,97.359l.063.069L104,91.372h4.588l-5.522,5.851,6.276,9.869h-4.811l-4.148-7.25-1.811,1.7v5.553H94.694V85.6h3.964Z" fill-rule="evenodd"/>
      <path id="Path_7" data-name="Path 7" d="M110.541,99.32c0,2.061.723,5.367,3.969,5.367s4.033-3.477,4.033-5.367c0-2.221-.646-5.317-3.994-5.364-3.248,0-4.008,3.3-4.008,5.364h0Zm11.76,1.065c-.543,4.2-3.4,7.232-7.75,7.232-4.715,0-7.8-3.557-7.8-8.326s3.1-8.307,7.8-8.327a7.532,7.532,0,0,1,7.625,6.395,8.12,8.12,0,0,1,.125,3.026Zm.558-9.027,3.652.017.068,2h.061A4.36,4.36,0,0,1,131.347,91V94.36h-.77a4,4,0,0,0-3.924,4.139v8.592h-3.8l.007-15.733Zm17.258-2.8c-2.262-.02-2.879.6-2.76,2.755h2.812v2.622h-2.785v13.135H133.53V93.934h-1.951V91.312h2.014c-.117-4.251,1.746-5.795,5.361-5.748.186.007.721-.02,1.162.017v2.975h0ZM53.79,91.465H57.6V107.09H53.79Zm.162-5.871h3.624v3.53H53.952ZM63.9,109.039c-.023,1.979-1.117,3.26-3.043,3.26-.514,0-1.578,0-3.223-.01V109.25c2.117-.014,2.446-.832,2.457-1.375V91.465H63.9v17.574Zm-3.7-23.445h3.626v3.53H60.206Zm23.836,7.594.091.094a5.5,5.5,0,0,1,4.1-2.334c3.489,0,5.359,2.177,5.359,5.9V107.09H89.824V97.635c-.026-1.694-.571-3.3-2.8-3.3a3.15,3.15,0,0,0-3.133,3.3v9.455H80.105v-15.7h3.937v1.793Zm-66.31,11.095c0,.982-.04,1.992.017,2.973H13.9c-.053-.711-.088-.891-.088-1.6h-.059a5.266,5.266,0,0,1-4.335,2.119c-4.2,0-6.582-4.143-6.582-7.973,0-5.548,2.982-8.571,6.5-8.571a5.6,5.6,0,0,1,4.587,1.984h.055V85.8h3.757v18.48h0Zm-3.6-4.765c0-2.121-.907-5.11-3.6-5.11-3.084,0-3.8,2.989-3.8,5.11,0,2.252.838,5.117,3.8,5.117,2.7,0,3.6-2.992,3.6-5.117Zm15.185-1.78A3.337,3.337,0,0,0,25.9,94.174a3.477,3.477,0,0,0-3.609,3.564Zm-7.1,2.672a3.858,3.858,0,0,0,3.852,4.088,3.437,3.437,0,0,0,3.2-1.908h3.923c-.108.521-1.247,5.061-7.363,5.061-4.128,0-7.483-3.8-7.483-8.057,0-4.485,2.487-8.486,7.507-8.486,3.081,0,5.182,1.566,6.539,4.305a10.332,10.332,0,0,1,.882,3.065,13.278,13.278,0,0,1,.124,1.932Zm18.275,3.483h4.541c2,0,3.961-.805,3.961-3.209,0-2.531-2.024-3.213-3.961-3.213H40.494ZM36.506,85.817h7.748c3.866-.247,8.151.925,8.151,5.351,0,2.448-1.433,3.8-3.612,4.556v.057a5.346,5.346,0,0,1,4.282,5.585c0,3.129-1.925,6.195-8.587,5.693H36.506V85.817Zm3.988,8.621h4.381c2.294,0,3.655-.922,3.655-2.712,0-1.85-1.3-2.708-3.655-2.708H40.494Zm35,3.3a3.336,3.336,0,0,0-3.423-3.564,3.474,3.474,0,0,0-3.609,3.564Zm-7.1,2.672a3.854,3.854,0,0,0,3.851,4.088,3.435,3.435,0,0,0,3.195-1.908h3.926c-.112.521-1.251,5.061-7.363,5.061-4.128,0-7.486-3.8-7.486-8.057,0-4.485,2.49-8.486,7.507-8.486,3.081,0,5.185,1.566,6.542,4.305a10.332,10.332,0,0,1,.882,3.065,13.279,13.279,0,0,1,.124,1.932H68.394ZM186.113,85.376,169.7,75.593v6.316H168.2a6.44,6.44,0,0,0-6.643,6.416v12.688H155.4V102.9h14.3v14.254l16.412-9.775v-22Zm-36.644,21.94,16.426,9.789v-10.25h-14.3v-9.8h6.152V88.185c0-5.461,4.623-9.452,8.15-9.957V75.646l-16.426,9.789v21.881h0Zm-3.8-24.174,22.18-13.213,22.078,13.156v26.583l-22.078,13.158-22.18-13.219V83.142Z" fill-rule="evenodd"/>
    </g>
  </g>
</svg>
